<svg width="31" height="11" viewBox="0 0 31 11" fill="none" xmlns="http://www.w3.org/2000/svg">
<g id="Arrow 12">
<path id="Thick" d="M4.30736 5.93156C5.68349 5.99787 7.06324 6.11171 8.43602 6.12458C14.7211 6.16104 21.0074 6.17388 27.2886 6.16871C27.9931 6.16714 28.6963 6.07078 29.3944 5.95643C29.9134 5.87488 30.3579 5.61806 30.3346 4.99536C30.3111 4.37856 29.8615 4.12603 29.3359 4.1007C27.1264 4.00607 24.9175 3.89963 22.7041 3.8877C17.6202 3.86176 12.534 3.88307 7.40685 3.77217C7.61811 3.68763 7.82967 3.59719 8.04656 3.51885C9.3057 3.06449 10.5705 2.61633 11.8299 2.15607C12.0468 2.07772 12.2713 1.96422 12.455 1.83692C12.8222 1.58822 12.8389 1.36407 12.8072 1.16127C12.7632 0.845404 12.5242 0.768768 12.1749 0.769696C11.9558 0.770978 11.7024 0.746928 11.4805 0.807271C8.44979 1.66169 5.42473 2.52229 2.40443 3.40681C2.02608 3.51882 1.65023 3.70198 1.33144 3.92933C0.528426 4.50038 0.636948 5.56526 1.51618 5.99242C4.00964 7.1959 6.50339 8.39347 8.99713 9.59104C9.16499 9.67017 9.23978 9.71521 9.521 9.77612C9.76706 9.82942 10.0791 9.6195 10.1948 9.42972C10.2849 9.28014 10.2089 8.89169 10.0672 8.76055C9.80071 8.51683 9.44165 8.35154 9.09945 8.20481C7.65557 7.57877 6.20494 6.97017 4.75459 6.35566C4.59206 6.28863 4.43658 6.19826 4.27434 6.12532C4.08456 6.00962 3.9631 5.95049 4.30736 5.93156Z" fill="black"/>
</g>
</svg>
