<svg width="31" height="11" viewBox="0 0 31 11" fill="none" xmlns="http://www.w3.org/2000/svg">
<g id="Arrow 14">
<path id="Thick" d="M26.6931 5.06843C25.317 5.00212 23.9372 4.88828 22.5645 4.87541C16.2794 4.83895 9.99311 4.82611 3.71191 4.83128C3.00738 4.83285 2.30419 4.9292 1.60606 5.04356C1.08711 5.12511 0.642584 5.38192 0.665857 6.00462C0.689415 6.62142 1.13899 6.87396 1.66464 6.89929C3.8741 6.99391 6.08299 7.10035 8.29643 7.11229C13.3803 7.13823 18.4665 7.11691 23.5936 7.22781C23.3824 7.31235 23.1708 7.40279 22.9539 7.48114C21.6948 7.93549 20.43 8.38366 19.1706 8.84391C18.9537 8.92226 18.7292 9.03576 18.5455 9.16306C18.1783 9.41176 18.1616 9.63591 18.1933 9.83871C18.2372 10.1546 18.4763 10.2312 18.8256 10.2303C19.0447 10.229 19.2981 10.2531 19.52 10.1927C22.5507 9.3383 25.5758 8.47769 28.5961 7.59317C28.9744 7.48117 29.3503 7.298 29.669 7.07065C30.4721 6.4996 30.3635 5.43472 29.4843 5.00757C26.9908 3.80409 24.4971 2.60652 22.0034 1.40894C21.8355 1.32982 21.7607 1.28477 21.4795 1.22386C21.2334 1.17057 20.9214 1.38049 20.8057 1.57027C20.7156 1.71984 20.7916 2.10829 20.9333 2.23944C21.1998 2.48315 21.5588 2.64845 21.901 2.79517C23.3449 3.42121 24.7956 4.02982 26.2459 4.64433C26.4084 4.71136 26.5639 4.80173 26.7261 4.87466C26.9159 4.99037 27.0374 5.0495 26.6931 5.06843Z" fill="black"/>
</g>
</svg>
