<svg width="18" height="18" viewBox="0 0 18 18" fill="none" xmlns="http://www.w3.org/2000/svg">
<g clip-path="url(#clip0_108_2230)">
<path fill-rule="evenodd" clip-rule="evenodd" d="M15.2947 4.41753C15.7942 3.91805 16.6038 3.91805 17.0999 4.41417L18 5.31257L16.9407 6.37019L16.2032 5.6327L15.3216 6.52104C16.7027 9.4911 16.1311 13.0562 13.865 15.4513C12.3716 17.0302 10.3519 17.9236 8.17965 17.9689C8.12266 17.9705 8.06568 17.9705 8.00869 17.9705C5.90014 17.9705 3.91227 17.1643 2.39539 15.6877C0.898624 14.2328 0.0488355 12.2433 0.00190434 10.0895C-0.0433507 7.93567 0.71928 5.91261 2.15068 4.39239C4.56596 1.82962 8.39419 1.13906 11.5419 2.6727L12.3934 1.82626L11.6559 1.08878L12.7135 0.02948L13.6086 0.92452C14.1047 1.42065 14.1047 2.23021 13.6086 2.72634L12.2627 4.06387C11.9911 4.33372 11.5671 4.39071 11.2335 4.20466L11.0508 4.10242C8.45956 2.74477 5.24646 3.28448 3.2368 5.41816C0.838284 7.96584 0.928794 12.1762 3.43626 14.615C4.70507 15.8486 6.37951 16.5073 8.14613 16.4721C9.91443 16.4352 11.5587 15.7078 12.7739 14.4222C14.6612 12.4276 15.1053 9.43747 13.8784 6.98197L13.7745 6.77078C13.6136 6.44059 13.679 6.04503 13.9371 5.78523L15.2947 4.41753ZM9.46531 9.31516C10.1642 8.54247 11.1079 8.48046 11.9091 9.14587C12.8427 9.92191 13.0824 11.0214 12.5091 12.1293C11.5604 13.9664 10.0151 14.8714 7.95345 14.9754C5.83988 14.8564 4.26769 13.8892 3.3542 11.9466C2.83126 10.832 3.27208 9.54478 4.33976 8.92965C5.05546 8.51733 5.90525 8.64807 6.44831 9.27158C6.84219 9.72413 7.31821 10.0007 7.92328 10.0174C8.54847 10.0359 9.04963 9.77441 9.46531 9.31516ZM5.89459 11.6873C5.9851 11.686 6.07538 11.6848 6.16504 11.6818C6.41143 11.6734 6.56899 11.531 6.57401 11.3131C6.58072 11.0868 6.41814 10.9292 6.16169 10.9225C6.05927 10.9203 5.95685 10.921 5.84825 10.9218C5.79157 10.9221 5.7332 10.9225 5.67227 10.9225C5.67227 10.865 5.67256 10.8096 5.67284 10.7558C5.67351 10.626 5.67414 10.5048 5.67059 10.3828C5.66389 10.1364 5.51974 9.97889 5.30185 9.97219C5.07557 9.96548 4.91802 10.1281 4.91131 10.3845C4.90775 10.5055 4.90839 10.6273 4.90907 10.7565C4.90935 10.8099 4.90964 10.8645 4.90964 10.9209H4.67833C4.65582 10.9209 4.63331 10.9206 4.6108 10.9203C4.55453 10.9196 4.49827 10.919 4.442 10.9225C4.21573 10.9343 4.0632 11.0834 4.0565 11.2913C4.04979 11.5058 4.20902 11.6701 4.44535 11.6801C4.54358 11.6848 4.64101 11.6838 4.74698 11.6828C4.79471 11.6823 4.84418 11.6818 4.89623 11.6818C4.91016 11.7625 4.90974 11.8523 4.90931 11.9416C4.90806 12.2069 4.90682 12.4683 5.28173 12.4746C5.67774 12.4809 5.67455 12.2094 5.67153 11.9525C5.67055 11.8691 5.66958 11.7873 5.68232 11.717C5.69081 11.7099 5.69661 11.7041 5.70099 11.6996C5.70698 11.6936 5.71029 11.6902 5.71417 11.6902C5.77435 11.6889 5.83452 11.6881 5.89459 11.6873ZM9.38485 11.2544C9.38485 11.4857 9.57258 11.6734 9.80388 11.6734C10.0352 11.6734 10.2229 11.4857 10.2229 11.2544C10.2229 11.0231 10.0352 10.8354 9.80388 10.8354C9.57258 10.8354 9.38485 11.0231 9.38485 11.2544ZM10.2397 12.1092C10.2397 12.3405 10.4274 12.5283 10.6587 12.5283C10.89 12.5283 11.0777 12.3405 11.0777 12.1092C11.0777 11.8779 10.89 11.6902 10.6587 11.6902C10.4274 11.6902 10.2397 11.8779 10.2397 12.1092ZM10.2397 10.3527C10.2397 10.584 10.4274 10.7717 10.6587 10.7717C10.89 10.7717 11.0777 10.584 11.0777 10.3527C11.0777 10.1214 10.89 9.93364 10.6587 9.93364C10.4274 9.93364 10.2397 10.1214 10.2397 10.3527ZM11.0945 11.2544C11.0945 11.4857 11.2822 11.6734 11.5135 11.6734C11.7448 11.6734 11.9325 11.4857 11.9325 11.2544C11.9325 11.0231 11.7448 10.8354 11.5135 10.8354C11.2822 10.8354 11.0945 11.0231 11.0945 11.2544Z" fill="white"/>
</g>
<defs>
<clipPath id="clip0_108_2230">
<rect width="18" height="17.941" fill="white" transform="translate(0 0.02948)"/>
</clipPath>
</defs>
</svg>
