<svg width="143" height="25" viewBox="0 0 143 25" fill="none" xmlns="http://www.w3.org/2000/svg">
<path d="M19.3457 3.2L15.8657 23.5C15.3243 23.558 14.8507 23.5967 14.4447 23.616C14.0387 23.6547 13.5747 23.674 13.0527 23.674C12.5693 23.674 12.1923 23.5193 11.9217 23.21C11.651 22.9007 11.4577 22.4463 11.3417 21.847L10.6747 18.628C10.3847 17.178 10.0657 14.6937 9.71765 11.175C9.35032 14.7323 9.05065 17.2167 8.81865 18.628L8.00665 23.5C7.05932 23.5967 6.03465 23.645 4.93265 23.645C4.52665 23.645 4.18832 23.4807 3.91765 23.152C3.66632 22.8233 3.48265 22.3883 3.36665 21.847C2.96065 19.8943 2.40965 16.7913 1.71365 12.538C1.01765 8.28467 0.553652 5.45233 0.321652 4.041C0.302319 3.94433 0.292652 3.81867 0.292652 3.664C0.292652 3.49 0.340986 3.374 0.437652 3.316C0.553652 3.23867 0.756652 3.2 1.04665 3.2H3.74365L5.19365 12.712C5.59965 15.322 5.87032 17.8257 6.00565 20.223H6.23765C6.29565 17.8643 6.53732 15.3607 6.96265 12.712L8.20965 4.94C8.24832 4.61133 8.31599 4.389 8.41265 4.273C8.50932 4.13767 8.70265 4.07 8.99265 4.07H11.2547L12.7627 12.712C13.0913 14.6067 13.3717 17.1103 13.6037 20.223H13.8357C13.9323 17.7483 14.1643 15.2447 14.5317 12.712L15.7787 4.07C15.8173 3.74133 15.885 3.519 15.9817 3.403C16.0783 3.26767 16.262 3.2 16.5327 3.2H19.3457ZM30.6314 22.978C30.6701 23.1713 30.5927 23.3163 30.3994 23.413C30.2061 23.5097 29.8001 23.558 29.1814 23.558C28.5047 23.558 27.8861 23.5387 27.3254 23.5L26.3684 18.86H22.4534L21.6124 22.949C21.5544 23.181 21.4384 23.3453 21.2644 23.442C21.1097 23.5193 20.7327 23.558 20.1334 23.558C19.4567 23.558 18.7801 23.5193 18.1034 23.442L22.9464 3.751C23.0237 3.345 23.4587 3.142 24.2514 3.142C24.9087 3.142 25.4211 3.18067 25.7884 3.258L30.6314 22.978ZM25.7594 15.96L25.1794 13.234C24.8894 11.842 24.6381 10.015 24.4254 7.753C24.1547 10.2083 23.8937 12.0353 23.6424 13.234L23.0624 15.96H25.7594ZM36.568 23.79C35.0794 23.79 33.9484 23.5193 33.175 22.978C32.4017 22.4173 31.8507 21.4507 31.522 20.078C31.2127 18.686 31.058 16.6657 31.058 14.017C31.058 11.001 31.2997 8.69067 31.783 7.086C32.2664 5.462 32.9624 4.36 33.871 3.78C34.7797 3.2 35.9687 2.91 37.438 2.91C38.424 2.91 39.1974 3.07433 39.758 3.403C40.3187 3.73167 40.599 4.128 40.599 4.592C40.599 5.19133 40.4637 5.87767 40.193 6.651C39.9804 6.477 39.6807 6.34167 39.294 6.245C38.9074 6.129 38.5207 6.071 38.134 6.071C37.1674 6.071 36.423 6.32233 35.901 6.825C35.379 7.32767 35.0214 8.12033 34.828 9.203C34.6347 10.2857 34.538 11.8033 34.538 13.756C34.538 15.728 34.596 17.207 34.712 18.193C34.8474 19.1597 35.06 19.8073 35.35 20.136C35.64 20.4647 36.0654 20.629 36.626 20.629C37.1094 20.629 37.4284 20.5323 37.583 20.339V13.843H36.22V11.755C36.22 11.3683 36.452 11.175 36.916 11.175H40.599L40.57 22.891C39.6614 23.4903 38.3274 23.79 36.568 23.79ZM54.1744 3.2V22.92C54.1744 23.1327 54.1261 23.2777 54.0294 23.355C53.9328 23.413 53.6138 23.4517 53.0724 23.471C52.5311 23.4903 51.7964 23.5 50.8684 23.5L51.0134 17.932C51.0521 16.5593 51.1294 15.235 51.2454 13.959C51.3808 12.6637 51.5064 11.61 51.6224 10.798C51.7384 9.986 51.8158 9.47367 51.8544 9.261L51.7674 9.203C51.0521 12.045 50.5591 13.843 50.2884 14.597L48.8964 18.454C48.8578 18.5893 48.7514 18.657 48.5774 18.657H47.2434L45.8804 14.597C45.6098 13.785 45.1361 11.987 44.4594 9.203L44.3724 9.261C44.4111 9.47367 44.4884 9.986 44.6044 10.798C44.7398 11.5907 44.8654 12.625 44.9814 13.901C45.1168 15.177 45.1844 16.511 45.1844 17.903L45.2714 22.92C45.2714 23.1327 45.2134 23.2777 45.0974 23.355C44.9814 23.413 44.6624 23.4517 44.1404 23.471C43.6184 23.4903 42.9321 23.5 42.0814 23.5V3.78C42.0814 3.52867 42.1298 3.374 42.2264 3.316C42.3231 3.23867 42.4681 3.2 42.6614 3.2H45.0974L47.4174 10.392C47.6688 11.1267 47.8524 11.7647 47.9684 12.306C48.1038 12.8473 48.1811 13.1857 48.2004 13.321C48.2198 13.1857 48.2874 12.8473 48.4034 12.306C48.5194 11.7647 48.6838 11.146 48.8964 10.45L50.8974 3.78C50.9748 3.548 51.0424 3.39333 51.1004 3.316C51.1778 3.23867 51.3034 3.2 51.4774 3.2H54.1744ZM55.9017 4.621C55.9017 4.099 55.9501 3.751 56.0467 3.577C56.1627 3.403 56.4141 3.29667 56.8007 3.258C57.1874 3.21933 57.9801 3.2 59.1787 3.2V22.92C59.1787 23.1327 59.1304 23.2777 59.0337 23.355C58.9371 23.413 58.6181 23.4517 58.0767 23.471C57.5354 23.4903 56.8104 23.5 55.9017 23.5V4.621Z" fill="#161418"/>
<path d="M62.7988 23.703C62.0448 23.703 61.5131 23.5387 61.2038 23.21C60.8944 22.862 60.7398 22.34 60.7398 21.644C60.7398 21.064 60.9234 20.571 61.2908 20.165C61.6774 19.759 62.1801 19.556 62.7988 19.556C63.5334 19.556 64.0554 19.7397 64.3648 20.107C64.6741 20.455 64.8288 20.9673 64.8288 21.644C64.8288 22.224 64.6451 22.717 64.2778 23.123C63.9298 23.5097 63.4368 23.703 62.7988 23.703ZM78.5016 3.2V22.92C78.5016 23.1327 78.4532 23.2777 78.3566 23.355C78.2599 23.413 77.9409 23.4517 77.3996 23.471C76.8582 23.4903 76.1236 23.5 75.1956 23.5L75.3406 17.932C75.3792 16.5593 75.4566 15.235 75.5726 13.959C75.7079 12.6637 75.8336 11.61 75.9496 10.798C76.0656 9.986 76.1429 9.47367 76.1816 9.261L76.0946 9.203C75.3792 12.045 74.8862 13.843 74.6156 14.597L73.2236 18.454C73.1849 18.5893 73.0786 18.657 72.9046 18.657H71.5706L70.2076 14.597C69.9369 13.785 69.4632 11.987 68.7866 9.203L68.6996 9.261C68.7382 9.47367 68.8156 9.986 68.9316 10.798C69.0669 11.5907 69.1926 12.625 69.3086 13.901C69.4439 15.177 69.5116 16.511 69.5116 17.903L69.5986 22.92C69.5986 23.1327 69.5406 23.2777 69.4246 23.355C69.3086 23.413 68.9896 23.4517 68.4676 23.471C67.9456 23.4903 67.2592 23.5 66.4086 23.5V3.78C66.4086 3.52867 66.4569 3.374 66.5536 3.316C66.6502 3.23867 66.7952 3.2 66.9886 3.2H69.4246L71.7446 10.392C71.9959 11.1267 72.1796 11.7647 72.2956 12.306C72.4309 12.8473 72.5082 13.1857 72.5276 13.321C72.5469 13.1857 72.6146 12.8473 72.7306 12.306C72.8466 11.7647 73.0109 11.146 73.2236 10.45L75.2246 3.78C75.3019 3.548 75.3696 3.39333 75.4276 3.316C75.5049 3.23867 75.6306 3.2 75.8046 3.2H78.5016ZM85.1589 23.79C83.8249 23.79 82.7906 23.5 82.0559 22.92C81.3212 22.34 80.7799 21.296 80.4319 19.788C80.1032 18.28 79.9389 16.0953 79.9389 13.234C79.9389 10.6433 80.1322 8.594 80.5189 7.086C80.9249 5.578 81.5242 4.505 82.3169 3.867C83.1289 3.229 84.1826 2.91 85.4779 2.91C86.7732 2.91 87.7882 3.20967 88.5229 3.809C89.2576 4.40833 89.7892 5.44267 90.1179 6.912C90.4659 8.38133 90.6399 10.45 90.6399 13.118C90.6399 15.8247 90.4466 17.9513 90.0599 19.498C89.6732 21.0447 89.0836 22.1467 88.2909 22.804C87.5176 23.4613 86.4736 23.79 85.1589 23.79ZM85.3329 20.455C85.8162 20.455 86.1836 20.2133 86.4349 19.73C86.6862 19.2467 86.8602 18.5023 86.9569 17.497C87.0536 16.4723 87.1019 15.0513 87.1019 13.234C87.1019 11.3587 87.0632 9.94733 86.9859 9C86.9279 8.05267 86.7732 7.35667 86.5219 6.912C86.2899 6.46733 85.9226 6.245 85.4199 6.245C84.9559 6.245 84.5886 6.49633 84.3179 6.999C84.0666 7.48233 83.8829 8.275 83.7669 9.377C83.6702 10.479 83.6219 12.0063 83.6219 13.959C83.6219 15.6023 83.6606 16.8783 83.7379 17.787C83.8346 18.6957 83.9989 19.3723 84.2309 19.817C84.4822 20.2423 84.8496 20.455 85.3329 20.455ZM96.6764 23.79C95.5164 23.79 94.5884 23.529 93.8924 23.007C93.2158 22.485 92.7034 21.528 92.3554 20.136C92.0074 18.7247 91.8334 16.685 91.8334 14.017C91.8334 6.61233 93.7668 2.91 97.6334 2.91C98.7548 2.91 99.4894 3.06467 99.8374 3.374C100.205 3.664 100.388 4.07967 100.388 4.621C100.388 5.259 100.234 5.90667 99.9244 6.564C99.4798 6.23533 98.9771 6.071 98.4164 6.071C97.4498 6.071 96.6764 6.63167 96.0964 7.753C95.5164 8.855 95.2264 10.856 95.2264 13.756C95.2264 15.438 95.3038 16.743 95.4584 17.671C95.6131 18.599 95.8548 19.2563 96.1834 19.643C96.5121 20.0103 96.9568 20.194 97.5174 20.194C98.4841 20.194 99.2381 20.049 99.7794 19.759C100.069 20.339 100.214 20.9673 100.214 21.644C100.214 22.3207 99.8954 22.8523 99.2574 23.239C98.6388 23.6063 97.7784 23.79 96.6764 23.79ZM110.863 22.92C110.863 23.1327 110.815 23.2777 110.718 23.355C110.641 23.413 110.331 23.4517 109.79 23.471C109.268 23.4903 108.553 23.5 107.644 23.5V14.191H104.802V22.92C104.802 23.1327 104.754 23.2777 104.657 23.355C104.58 23.413 104.27 23.4517 103.729 23.471C103.207 23.4903 102.492 23.5 101.583 23.5V3.78C101.583 3.56733 101.622 3.432 101.699 3.374C101.796 3.29667 102.105 3.24833 102.627 3.229C103.168 3.20967 103.893 3.2 104.802 3.2V11.175H107.644V3.78C107.644 3.56733 107.683 3.432 107.76 3.374C107.857 3.29667 108.166 3.24833 108.688 3.229C109.229 3.20967 109.954 3.2 110.863 3.2V22.92ZM112.656 4.621C112.656 4.099 112.704 3.751 112.801 3.577C112.917 3.403 113.168 3.29667 113.555 3.258C113.941 3.21933 114.734 3.2 115.933 3.2V22.92C115.933 23.1327 115.884 23.2777 115.788 23.355C115.691 23.413 115.372 23.4517 114.831 23.471C114.289 23.4903 113.564 23.5 112.656 23.5V4.621ZM119.553 23.703C118.799 23.703 118.267 23.5387 117.958 23.21C117.648 22.862 117.494 22.34 117.494 21.644C117.494 21.064 117.677 20.571 118.045 20.165C118.431 19.759 118.934 19.556 119.553 19.556C120.287 19.556 120.809 19.7397 121.119 20.107C121.428 20.455 121.583 20.9673 121.583 21.644C121.583 22.224 121.399 22.717 121.032 23.123C120.684 23.5097 120.191 23.703 119.553 23.703ZM127.505 23.79C126.016 23.79 124.885 23.5193 124.112 22.978C123.338 22.4173 122.787 21.4507 122.459 20.078C122.149 18.686 121.995 16.6657 121.995 14.017C121.995 11.001 122.236 8.69067 122.72 7.086C123.203 5.462 123.899 4.36 124.808 3.78C125.716 3.2 126.905 2.91 128.375 2.91C129.361 2.91 130.134 3.07433 130.695 3.403C131.255 3.73167 131.536 4.128 131.536 4.592C131.536 5.19133 131.4 5.87767 131.13 6.651C130.917 6.477 130.617 6.34167 130.231 6.245C129.844 6.129 129.457 6.071 129.071 6.071C128.104 6.071 127.36 6.32233 126.838 6.825C126.316 7.32767 125.958 8.12033 125.765 9.203C125.571 10.2857 125.475 11.8033 125.475 13.756C125.475 15.728 125.533 17.207 125.649 18.193C125.784 19.1597 125.997 19.8073 126.287 20.136C126.577 20.4647 127.002 20.629 127.563 20.629C128.046 20.629 128.365 20.5323 128.52 20.339V13.843H127.157V11.755C127.157 11.3683 127.389 11.175 127.853 11.175H131.536L131.507 22.891C130.598 23.4903 129.264 23.79 127.505 23.79ZM138.238 23.79C136.749 23.79 135.618 23.5193 134.845 22.978C134.072 22.4173 133.521 21.4507 133.192 20.078C132.883 18.686 132.728 16.6657 132.728 14.017C132.728 11.001 132.97 8.69067 133.453 7.086C133.936 5.462 134.632 4.36 135.541 3.78C136.45 3.2 137.639 2.91 139.108 2.91C140.094 2.91 140.867 3.07433 141.428 3.403C141.989 3.73167 142.269 4.128 142.269 4.592C142.269 5.19133 142.134 5.87767 141.863 6.651C141.65 6.477 141.351 6.34167 140.964 6.245C140.577 6.129 140.191 6.071 139.804 6.071C138.837 6.071 138.093 6.32233 137.571 6.825C137.049 7.32767 136.691 8.12033 136.498 9.203C136.305 10.2857 136.208 11.8033 136.208 13.756C136.208 15.728 136.266 17.207 136.382 18.193C136.517 19.1597 136.73 19.8073 137.02 20.136C137.31 20.4647 137.735 20.629 138.296 20.629C138.779 20.629 139.098 20.5323 139.253 20.339V13.843H137.89V11.755C137.89 11.3683 138.122 11.175 138.586 11.175H142.269L142.24 22.891C141.331 23.4903 139.997 23.79 138.238 23.79Z" fill="#E88B88"/>
</svg>
